<svg width="10" height="10" viewBox="0 0 10 10" fill="none" xmlns="http://www.w3.org/2000/svg">
<path d="M5.0001 0C3.64215 0 3.47187 0.00576084 2.93855 0.0300844C2.40635 0.0543633 2.04288 0.1389 1.72483 0.262483C1.39603 0.390263 1.11719 0.561243 0.839222 0.839207C0.561243 1.11717 0.390263 1.39604 0.262498 1.72484C0.138885 2.04288 0.0543782 2.40635 0.0300695 2.93855C0.00574595 3.47187 0 3.64215 0 5.0001C0 6.35802 0.00574595 6.5283 0.0300695 7.06161C0.0543782 7.59381 0.138885 7.95728 0.262498 8.27532C0.390278 8.60412 0.561258 8.88296 0.839222 9.16096C1.1172 9.43892 1.39603 9.6099 1.72483 9.73768C2.04288 9.86126 2.40635 9.94578 2.93855 9.97008C3.47187 9.9944 3.64215 10.0002 5.0001 10.0002C6.35802 10.0002 6.5283 9.9944 7.06161 9.97008C7.59381 9.9458 7.95728 9.86126 8.27532 9.73768C8.60412 9.6099 8.88296 9.43892 9.16096 9.16096C9.43892 8.88296 9.6099 8.60412 9.73768 8.27532C9.86126 7.95728 9.9458 7.59381 9.97008 7.06161C9.9944 6.5283 10.0002 6.35802 10.0002 5.0001C10.0002 3.64215 9.9944 3.47187 9.97008 2.93855C9.9458 2.40635 9.86126 2.04288 9.73768 1.72484C9.6099 1.39604 9.43892 1.11717 9.16096 0.839207C8.88296 0.561243 8.60412 0.390263 8.27532 0.262483C7.95728 0.1389 7.59381 0.0543633 7.06161 0.0300844C6.5283 0.00576084 6.35802 0 5.0001 0ZM5.0001 0.900909C6.33515 0.900909 6.4933 0.906015 7.02054 0.93007C7.50806 0.952295 7.7728 1.03375 7.94898 1.10223C8.18239 1.19294 8.34895 1.30128 8.5239 1.47625C8.69888 1.65122 8.80722 1.81779 8.89794 2.05117C8.96641 2.22736 9.04787 2.49212 9.07009 2.97962C9.09415 3.50686 9.09925 3.66501 9.09925 5.00008C9.09925 6.33515 9.09415 6.4933 9.07009 7.02054C9.04787 7.50806 8.96641 7.7728 8.89794 7.94898C8.80722 8.18239 8.69888 8.34895 8.5239 8.5239C8.34895 8.69888 8.18237 8.80722 7.94899 8.89794C7.7728 8.96641 7.50804 9.04787 7.02054 9.07009C6.49339 9.09415 6.33526 9.09925 5.00008 9.09925C3.66491 9.09925 3.5068 9.09415 2.97962 9.07008C2.49211 9.04787 2.22736 8.96641 2.05119 8.89794C1.81778 8.80722 1.65122 8.69888 1.47626 8.5239C1.30129 8.34895 1.19294 8.18237 1.10223 7.94899C1.03375 7.7728 0.95231 7.50804 0.93007 7.02054C0.906015 6.4933 0.900909 6.33515 0.900909 5.00008C0.900909 3.66501 0.906015 3.50686 0.93007 2.97962C0.95231 2.49211 1.03375 2.22736 1.10223 2.05119C1.19294 1.81778 1.30129 1.65122 1.47625 1.47626C1.65122 1.30128 1.81779 1.19294 2.05117 1.10223C2.22736 1.03375 2.49212 0.952295 2.97962 0.93007C3.50686 0.906015 3.66501 0.900909 5.00008 0.900909" fill="white"/>
<path d="M5.00048 6.66624C4.07997 6.66624 3.33377 5.92004 3.33377 4.99956C3.33377 4.07905 4.07997 3.33285 5.00048 3.33285C5.92097 3.33285 6.66717 4.07905 6.66717 4.99956C6.66717 5.92004 5.92097 6.66624 5.00048 6.66624ZM5.00048 2.43194C3.58241 2.43194 2.43286 3.58148 2.43286 4.99956C2.43286 6.4176 3.58241 7.56715 5.00048 7.56715C6.41853 7.56715 7.56808 6.4176 7.56808 4.99956C7.56808 3.58148 6.41853 2.43194 5.00048 2.43194ZM8.26954 2.33049C8.26954 2.66188 8.0009 2.93049 7.66952 2.93049C7.33816 2.93049 7.06952 2.66188 7.06952 2.33049C7.06952 1.99911 7.33816 1.73047 7.66952 1.73047C8.0009 1.73047 8.26954 1.99911 8.26954 2.33049Z" fill="white"/>
</svg>
